<svg xmlns="http://www.w3.org/2000/svg"  viewBox="0 0 64 64" width="64px" height="64px"><path d="M 26 3 C 23.798743 3 22.037163 4.7271111 20.861328 7.0957031 C 19.685493 9.4642951 19 12.614304 19 16.085938 C 19 18.62399 19.4147 20.938208 20.070312 22.949219 C 16.593055 25.83283 14.320313 29.816886 14.320312 34 C 14.320312 37.899975 16.327808 41.170373 19.4375 43.402344 C 17.805445 45.446868 16.756658 48.241003 16.248047 51.320312 A 1.0001 1.0001 0 0 0 16.029297 52.306641 C 16.017901 52.407499 15.991971 52.499936 15.964844 52.591797 A 1.0001 1.0001 0 0 0 15.882812 53 A 1.0001 1.0001 0 0 0 15.912109 53.308594 C 16.060529 55.865736 17.989743 58 20.474609 58 C 21.064192 58 21.629745 57.87141 22.148438 57.650391 A 1.0001 1.0001 0 0 0 22.240234 57.855469 C 22.400178 58.605944 22.660408 59.312517 23.029297 59.9375 L 23.029297 59.939453 C 23.439655 60.633709 24.183877 61 24.945312 61 L 30.117188 61 C 30.864028 61 31.583126 60.636171 31.998047 59.970703 C 32.413563 60.639884 33.136965 61 33.882812 61 L 39.052734 61 C 39.815704 61 40.558808 60.631099 40.96875 59.9375 C 41.338349 59.312515 41.599503 58.606153 41.759766 57.855469 A 1.0001 1.0001 0 0 0 41.855469 57.642578 C 42.377739 57.867797 42.94855 58 43.544922 58 C 46.033195 58 47.962276 55.852885 48.091797 53.289062 A 1.0001 1.0001 0 0 0 48.113281 52.941406 A 1.0001 1.0001 0 0 0 48.042969 52.630859 C 48.01206 52.525237 47.983822 52.418638 47.970703 52.302734 A 1.0001 1.0001 0 0 0 47.75 51.320312 C 47.241449 48.24178 46.193801 45.448652 44.5625 43.404297 C 47.673472 41.172292 49.681641 37.90091 49.681641 34 C 49.680631 30.695868 48.174623 27.548225 45.880859 24.929688 C 47.136854 23.462147 48 21.655948 48 19.611328 C 48 14.866941 43.928337 11.056641 39 11.056641 C 36.567584 11.056641 34.368944 11.997093 32.742188 13.503906 C 32.484299 11.072929 31.993401 8.8042775 31.115234 7.0507812 C 29.94122 4.7065448 28.187547 3 26 3 z M 26 5 C 27.105453 5 28.333437 5.9650021 29.326172 7.9472656 C 30.318907 9.9295292 30.979778 12.79193 30.996094 15.966797 A 1.0001 1.0001 0 0 0 30.998047 16.011719 C 30.997158 17.663817 30.825008 19.232395 30.513672 20.636719 A 1.0001 1.0001 0 1 0 32.464844 21.070312 C 32.785664 19.623209 32.93572 18.022509 32.960938 16.367188 C 34.160598 14.418717 36.386541 13.056641 39 13.056641 C 42.907663 13.056641 46 16.011715 46 19.611328 C 46 21.329218 45.295014 22.878823 44.130859 24.054688 C 43.490982 24.47786 42.742827 24.724609 41.927734 24.724609 C 40.992777 24.724609 40.139885 24.405513 39.445312 23.859375 A 1.0001 1.0001 0 0 0 38.796875 23.636719 A 1.0001 1.0001 0 0 0 38.208984 25.431641 C 39.236413 26.239503 40.532691 26.724609 41.927734 26.724609 C 42.824884 26.724609 43.675879 26.515623 44.445312 26.158203 C 46.484613 28.473325 47.680799 31.249119 47.681641 34 C 47.681641 37.30339 46.035832 39.968465 43.226562 41.912109 C 40.417243 43.855756 36.436486 45 32.001953 45 C 27.56742 45 23.58466 43.855754 20.775391 41.912109 C 17.966121 39.968465 16.320313 37.30339 16.320312 34 C 16.320312 30.357015 18.414352 26.65592 21.792969 24.064453 A 1.0001 1.0001 0 0 0 22.123047 22.925781 C 21.429645 21.044893 21 18.671352 21 16.085938 C 21 12.88257 21.656679 9.990033 22.652344 7.984375 C 23.648008 5.978717 24.887257 5 26 5 z M 26 10.107422 C 25.310288 10.107422 24.721216 10.478883 24.306641 10.935547 C 23.892065 11.392211 23.587885 11.95923 23.335938 12.615234 C 22.832041 13.927243 22.552734 15.615198 22.552734 17.478516 C 22.552734 19.139203 22.778972 20.660315 23.181641 21.898438 A 1.0001 1.0001 0 0 0 24.523438 22.509766 C 25.709228 22.003992 26.999327 21.620885 28.359375 21.367188 A 1.0001 1.0001 0 0 0 29.15625 20.578125 C 29.341848 19.637185 29.447266 18.589493 29.447266 17.478516 C 29.447266 15.615198 29.16796 13.927243 28.664062 12.615234 C 28.412115 11.95923 28.107935 11.392211 27.693359 10.935547 C 27.278784 10.478883 26.689712 10.107422 26 10.107422 z M 26 12.107422 C 25.98579 12.107422 26.04004 12.091052 26.210938 12.279297 C 26.38183 12.467539 26.605948 12.834911 26.796875 13.332031 C 27.178728 14.326272 27.447266 15.822833 27.447266 17.478516 C 27.447266 18.257878 27.350996 18.951614 27.248047 19.625 C 26.453288 19.802804 25.696321 20.047961 24.947266 20.310547 C 24.755715 19.452667 24.552734 18.577252 24.552734 17.478516 C 24.552734 15.822833 24.821272 14.326272 25.203125 13.332031 C 25.394052 12.834911 25.61817 12.467539 25.789062 12.279297 C 25.959957 12.091054 26.014212 12.107422 26 12.107422 z M 36.789062 19.416016 A 1.0001 1.0001 0 0 0 35.804688 20.429688 C 35.804688 20.57852 35.809393 20.730185 35.820312 20.882812 A 1.0005898 1.0005898 0 1 0 37.816406 20.740234 C 37.809306 20.640864 37.804688 20.536853 37.804688 20.429688 A 1.0001 1.0001 0 0 0 36.789062 19.416016 z M 26.353516 26.042969 C 26.267516 26.037969 26.188859 26.072859 26.130859 26.130859 L 24.34375 27.917969 C 24.27375 27.986969 24.243719 28.085641 24.261719 28.181641 C 24.279719 28.278641 24.343594 28.360391 24.433594 28.400391 L 29.796875 30.783203 C 29.833875 30.800203 29.873062 30.808594 29.914062 30.808594 C 30.006062 30.808594 30.096297 30.767453 30.154297 30.689453 C 30.237297 30.577453 30.231625 30.422406 30.140625 30.316406 L 26.566406 26.146484 C 26.512406 26.083484 26.435516 26.045969 26.353516 26.042969 z M 34 29 A 1.0001 1.0001 0 1 0 34 31 L 36 31 A 1.0001 1.0001 0 1 0 36 29 L 34 29 z M 28 32 A 1 1 0 0 0 28 34 A 1 1 0 0 0 28 32 z M 35 32 A 1 1 0 0 0 35 34 A 1 1 0 0 0 35 32 z M 32 34 C 31.068 34 30.511719 34.446406 30.511719 35.191406 C 30.511719 35.626858 30.701638 36.014769 31 36.287109 L 31 36.898438 L 31 37.792969 C 31 37.929677 31.000383 37.879089 30.972656 37.900391 C 30.944926 37.921691 30.828457 37.970707 30.6875 37.966797 C 30.546543 37.962897 30.405127 37.904307 30.355469 37.865234 C 30.305809 37.826164 30.318359 37.865134 30.318359 37.792969 A 1.0001 1.0001 0 1 0 28.318359 37.792969 C 28.318359 38.465308 28.666111 39.081041 29.119141 39.4375 C 29.57217 39.793959 30.101567 39.950136 30.630859 39.964844 C 31.095774 39.977764 31.567201 39.816171 32 39.544922 C 32.432799 39.816171 32.904226 39.977763 33.369141 39.964844 C 33.898433 39.950134 34.42783 39.793959 34.880859 39.4375 C 35.333889 39.081041 35.681641 38.465308 35.681641 37.792969 A 1.0001 1.0001 0 1 0 33.681641 37.792969 C 33.681641 37.865129 33.694191 37.826154 33.644531 37.865234 C 33.594871 37.904304 33.453457 37.962884 33.3125 37.966797 C 33.171543 37.970697 33.055074 37.921701 33.027344 37.900391 C 32.999609 37.879085 33 37.929677 33 37.792969 L 33 36.898438 L 33 36.287109 C 33.298362 36.014622 33.488281 35.626329 33.488281 35.191406 C 33.488281 34.446406 32.932 34 32 34 z M 21.138672 44.466797 C 24.163302 46.112412 27.927917 47 32.001953 47 C 36.074842 47 39.837547 46.113471 42.861328 44.46875 C 44.206894 46.069016 45.117542 48.411822 45.650391 51 L 42.320312 51 C 42.211922 50.117315 42.044258 49.258609 41.808594 48.439453 A 1.0001 1.0001 0 0 0 40.847656 47.701172 A 1.0001 1.0001 0 0 0 39.886719 48.992188 C 40.147532 49.89876 40.319015 50.864342 40.400391 51.867188 C 39.421627 50.675793 38.044999 49.916016 36.46875 49.916016 C 34.525123 49.916016 32.963426 51.133658 32 52.830078 C 31.036424 51.133669 29.474418 49.917969 27.53125 49.917969 C 25.954071 49.917969 24.576525 50.678485 23.597656 51.871094 C 23.678881 50.866771 23.852112 49.899998 24.113281 48.992188 A 1.0001 1.0001 0 0 0 23.121094 47.701172 A 1.0001 1.0001 0 0 0 22.191406 48.439453 C 21.955742 49.258609 21.788078 50.117315 21.679688 51 L 18.349609 51 C 18.882587 48.411193 19.792567 46.06709 21.138672 44.466797 z M 36.46875 51.916016 C 38.283406 51.916016 39.935547 53.777395 39.935547 56.308594 C 39.935547 57.296763 39.675234 58.197558 39.248047 58.919922 C 39.235989 58.940323 39.159765 59 39.052734 59 L 33.882812 59 C 33.77425 59 33.700828 58.941185 33.689453 58.921875 L 33.6875 58.921875 L 33.6875 58.919922 C 33.26127 58.197762 33.000366 57.297903 33 56.310547 L 33 56.308594 C 33 53.777171 34.65283 51.916016 36.46875 51.916016 z M 27.53125 51.917969 C 29.345414 51.917969 30.999104 53.778444 31 56.308594 L 31 56.310547 C 31 57.298716 30.737397 58.198946 30.310547 58.919922 C 30.298489 58.940229 30.224218 59 30.117188 59 L 24.945312 59 C 24.836749 59 24.763595 58.941575 24.751953 58.921875 C 24.325378 58.199158 24.064453 57.298716 24.064453 56.310547 C 24.064453 53.779348 25.716594 51.917969 27.53125 51.917969 z M 17.902344 53 L 21.546875 53 C 21.546559 53.043346 21.542969 53.085467 21.542969 53.128906 C 21.542969 53.991136 21.612025 54.833169 21.732422 55.652344 A 1.0001 1.0001 0 0 0 21.554688 55.726562 C 21.223546 55.903783 20.862744 56 20.474609 56 C 19.109227 56 17.917573 54.752438 17.888672 53.060547 C 17.89458 53.041133 17.900468 53.021821 17.902344 53 z M 42.453125 53 L 46.097656 53 C 46.099685 53.023981 46.107064 53.044901 46.113281 53.066406 C 46.091797 54.754321 44.904655 56 43.544922 56 C 43.160698 56 42.800983 55.90462 42.470703 55.728516 A 1.0004595 1.0004595 0 0 0 42.269531 55.648438 C 42.38953 54.830563 42.457031 53.989679 42.457031 53.128906 C 42.457031 53.085467 42.453441 53.043346 42.453125 53 z"/></svg>