<svg xmlns="http://www.w3.org/2000/svg" xmlns:xlink="http://www.w3.org/1999/xlink" viewBox="0,0,256,256" width="64px" height="64px" fill-rule="nonzero"><g fill="none" fill-rule="nonzero" stroke="none" stroke-width="1" stroke-linecap="butt" stroke-linejoin="miter" stroke-miterlimit="10" stroke-dasharray="" stroke-dashoffset="0" font-family="none" font-weight="none" font-size="none" text-anchor="none" style="mix-blend-mode: normal"><g transform="scale(4,4)"><path d="M43.613,43.808h-1.662c4.077,-2.063 6.73,-5.474 6.73,-9.808c0,-3.272 -1.507,-6.506 -3.997,-9.076c1.431,-1.365 2.316,-3.241 2.316,-5.313c0,-4.172 -3.582,-7.554 -8,-7.554c-3.016,0 -5.64,1.577 -7.003,3.904c-0.034,-6.616 -2.704,-11.961 -5.997,-11.961c-3.314,0 -6,5.411 -6,12.086c0,2.695 0.443,5.175 1.184,7.185c-3.584,2.749 -5.864,6.708 -5.864,10.729c0,4.334 2.653,7.745 6.73,9.808h-1.662c-1.886,2.231 -3.207,5.498 -3.504,9.214h7.13c-0.586,0.912 -0.949,2.044 -0.949,3.288c0,1.164 0.307,2.239 0.827,3.12c0.21,0.356 0.619,0.57 1.054,0.57h5.17c0.436,0 0.844,-0.214 1.055,-0.571c0.522,-0.88 0.829,-1.955 0.829,-3.119c0,-1.244 -0.363,-2.375 -0.949,-3.288h1.898c-0.586,0.913 -0.949,2.044 -0.949,3.288c0,1.164 0.307,2.239 0.828,3.12c0.21,0.356 0.62,0.57 1.055,0.57h5.17c0.435,0 0.844,-0.214 1.055,-0.571c0.521,-0.88 0.828,-1.956 0.828,-3.12c0,-1.244 -0.363,-2.375 -0.949,-3.288h7.13c-0.297,-3.715 -1.618,-6.982 -3.504,-9.213z" fill="#ffffff"></path><path d="M22.192,56.426h-1.585c-1.892,0 -3.426,-1.534 -3.426,-3.426v0h5.011z" fill="#ffffff"></path><path d="M41.458,56.122h1.585c1.892,0 3.426,-1.534 3.426,-3.426v0h-5.011z" fill="#ffffff"></path><path d="M28.176,20.385c0.172,-0.872 0.271,-1.858 0.271,-2.906c0,-3.519 -1.096,-6.372 -2.447,-6.372c-1.351,0 -2.447,2.853 -2.447,6.372c0,1.568 0.218,3.001 0.579,4.111c1.259,-0.537 2.618,-0.939 4.044,-1.205z" fill="#ffffff"></path><path d="M24.132,22.59c-0.142,0 -0.282,-0.03 -0.414,-0.09c-0.256,-0.116 -0.45,-0.334 -0.537,-0.602c-0.411,-1.266 -0.628,-2.794 -0.628,-4.42c0,-3.551 1.079,-7.372 3.447,-7.372c2.368,0 3.447,3.821 3.447,7.372c0,1.079 -0.098,2.122 -0.29,3.1c-0.079,0.401 -0.396,0.715 -0.798,0.79c-1.369,0.256 -2.659,0.64 -3.835,1.142c-0.126,0.053 -0.258,0.08 -0.392,0.08zM28.176,20.385h0.01zM25.994,12.105c-0.423,0.092 -1.441,2.03 -1.441,5.373c0,0.976 0.092,1.928 0.263,2.771c0.796,-0.282 1.628,-0.52 2.489,-0.709c0.095,-0.659 0.143,-1.351 0.143,-2.063c-0.001,-3.341 -1.019,-5.28 -1.454,-5.372z" fill="#000000"></path><path d="M34.681,36.793c-0.553,0 -1,0.447 -1,1c0,0.105 -0.229,0.173 -0.388,0.173c-0.126,0 -0.225,-0.033 -0.267,-0.067c-0.007,-0.006 -0.026,-0.021 -0.026,-0.106v-1.505c0.299,-0.273 0.489,-0.661 0.489,-1.096c0,-0.746 -0.557,-1.192 -1.489,-1.192c-0.932,0 -1.489,0.446 -1.489,1.191c0,0.435 0.191,0.824 0.489,1.096v1.505c0,0.085 -0.019,0.1 -0.026,0.105c-0.042,0.034 -0.141,0.067 -0.267,0.067c-0.158,0 -0.388,-0.067 -0.388,-0.173c0,-0.553 -0.447,-1 -1,-1c-0.553,0 -1,0.447 -1,1c0,1.239 1.026,2.173 2.388,2.173c0.473,0 0.92,-0.13 1.293,-0.358c0.373,0.229 0.82,0.358 1.293,0.358c1.361,0 2.388,-0.934 2.388,-2.173c0,-0.551 -0.448,-0.998 -1,-0.998z" fill="#000000"></path><path d="M36,29h-2c-0.553,0 -1,0.447 -1,1c0,0.553 0.447,1 1,1h2c0.553,0 1,-0.447 1,-1c0,-0.553 -0.447,-1 -1,-1z" fill="#000000"></path><path d="M29.915,30.808c0.092,0 0.181,-0.042 0.239,-0.12c0.083,-0.112 0.078,-0.266 -0.013,-0.372l-3.574,-4.17c-0.054,-0.063 -0.132,-0.101 -0.214,-0.104c-0.086,-0.005 -0.164,0.029 -0.222,0.087l-1.787,1.787c-0.07,0.069 -0.1,0.169 -0.082,0.265c0.018,0.096 0.082,0.178 0.172,0.218l5.362,2.383c0.037,0.018 0.078,0.026 0.119,0.026z" fill="#000000"></path><circle cx="35" cy="33" r="1" fill="#000000"></circle><circle cx="28" cy="33" r="1" fill="#000000"></circle><path d="M30.117,60.5h-5.171c-0.618,0 -1.188,-0.313 -1.485,-0.815c-0.587,-0.994 -0.897,-2.161 -0.897,-3.375c0,-3.249 2.229,-5.893 4.969,-5.893c2.739,0 4.968,2.644 4.968,5.893c0,1.214 -0.311,2.381 -0.897,3.374c-0.299,0.504 -0.869,0.816 -1.487,0.816zM27.532,51.417c-2.188,0 -3.969,2.194 -3.969,4.893c0,1.035 0.263,2.026 0.759,2.866c0.116,0.196 0.361,0.324 0.624,0.324h5.171c0.263,0 0.508,-0.128 0.624,-0.325c0.496,-0.839 0.759,-1.83 0.759,-2.865c0,-2.699 -1.78,-4.893 -3.968,-4.893z" fill="#000000"></path><path d="M45,21.61c-1.104,0 -2,-0.896 -2,-2c0,-1.959 -1.794,-3.553 -4,-3.553c-1.104,0 -2,-0.896 -2,-2c0,-1.104 0.896,-2 2,-2c4.411,0 8,3.388 8,7.553c0,1.105 -0.896,2 -2,2z" fill="#ffffff"></path><g fill="#ffffff"><path d="M30.312,58.921v0c-0.871,-0.515 -1.35,-1.471 -1.314,-2.482c0.001,-0.043 0.002,-0.086 0.002,-0.129c0,-0.809 -0.284,-1.508 -0.658,-1.939c-0.511,-0.588 -0.902,-1.269 -0.989,-2.043l-0.045,-0.401c1.993,-0.175 3.692,1.867 3.692,4.383c0,0.945 -0.238,1.848 -0.688,2.611z"></path></g><g fill="#ffffff"><path d="M39.248,58.921v0c-0.871,-0.515 -1.35,-1.471 -1.314,-2.482c0.002,-0.043 0.002,-0.086 0.002,-0.129c0,-0.809 -0.284,-1.508 -0.658,-1.939c-0.511,-0.588 -0.902,-1.269 -0.989,-2.043l-0.045,-0.401c1.993,-0.175 3.692,1.867 3.692,4.383c0,0.945 -0.238,1.848 -0.688,2.611z"></path></g><g fill="#000000"><path d="M48.114,52.942c-0.295,-3.699 -1.558,-7.066 -3.551,-9.539c3.209,-2.313 5.118,-5.592 5.118,-9.404c0,-3.174 -1.283,-6.362 -3.634,-9.069c1.266,-1.506 1.953,-3.364 1.953,-5.32c0,-4.716 -4.037,-8.553 -9,-8.553c-2.314,0 -4.504,0.849 -6.148,2.311c-0.656,-5.984 -3.441,-10.368 -6.852,-10.368c-3.925,0 -7,5.748 -7,13.086c0,2.438 0.348,4.788 1.009,6.844c-3.575,2.976 -5.689,7.066 -5.689,11.07c0,3.812 1.909,7.091 5.118,9.404c-1.994,2.472 -3.256,5.84 -3.551,9.539c-0.001,0.009 0.004,0.018 0.003,0.027c0,0.011 -0.006,0.02 -0.006,0.031c0,2.757 2.06,5 4.592,5c0.584,0 1.146,-0.123 1.68,-0.352c0.02,0.059 0.047,0.114 0.077,0.166c0.156,0.754 0.416,1.475 0.8,2.125c0.385,0.654 1.119,1.06 1.913,1.06h5.171c0.775,0 1.488,-0.391 1.882,-1.019c0.394,0.627 1.108,1.019 1.884,1.019h5.17c0.795,0 1.529,-0.406 1.917,-1.062c0.389,-0.658 0.65,-1.39 0.805,-2.155c0.025,-0.048 0.057,-0.091 0.074,-0.144c0.536,0.233 1.114,0.361 1.695,0.361c2.521,0 4.573,-2.233 4.573,-4.979c0,-0.014 -0.007,-0.025 -0.008,-0.038c0,-0.015 0.006,-0.027 0.005,-0.041zM16.319,34c0,-3.593 2.046,-7.308 5.473,-9.936c0.348,-0.267 0.481,-0.729 0.33,-1.14c-0.734,-1.992 -1.122,-4.357 -1.122,-6.838c0,-6.533 2.635,-11.086 5,-11.086c2.387,0 4.964,4.407 4.997,10.967c0,0.009 0.004,0.017 0.004,0.026c0,0.002 -0.001,0.004 -0.001,0.007c0,1.615 -0.164,3.176 -0.487,4.638c-0.119,0.539 0.222,1.073 0.761,1.192c0.072,0.016 0.146,0.023 0.217,0.023c0.459,0 0.872,-0.317 0.976,-0.784c0.336,-1.52 0.509,-3.133 0.527,-4.796c1.261,-1.985 3.534,-3.216 6.007,-3.216c3.859,0 7,2.939 7,6.553c0,1.658 -0.663,3.223 -1.86,4.437c-1.419,0.94 -3.345,0.874 -4.693,-0.187c-0.437,-0.342 -1.063,-0.266 -1.404,0.168c-0.341,0.434 -0.267,1.063 0.168,1.404c1.075,0.846 2.361,1.293 3.718,1.293c0.878,0 1.731,-0.2 2.518,-0.566c2.082,2.361 3.234,5.117 3.234,7.84c0,6.374 -6.595,11 -15.681,11c-9.086,0 -15.682,-4.625 -15.682,-10.999zM21.555,55.727c-0.34,0.181 -0.703,0.273 -1.08,0.273c-1.416,0 -2.567,-1.323 -2.588,-2.956c0.001,-0.015 0.004,-0.029 0.005,-0.044h3.655c0,0.043 -0.004,0.085 -0.004,0.128c0,0.86 0.069,1.709 0.193,2.544c-0.061,0.019 -0.124,0.024 -0.181,0.055zM30.312,58.92c-0.024,0.039 -0.099,0.08 -0.195,0.08h-5.171c-0.102,0 -0.175,-0.047 -0.193,-0.079c-0.451,-0.763 -0.689,-1.666 -0.689,-2.611c0,-2.422 1.556,-4.393 3.469,-4.393c1.912,0 3.468,1.971 3.468,4.393c-0.001,0.945 -0.239,1.848 -0.689,2.61zM39.248,58.92c-0.02,0.033 -0.093,0.08 -0.195,0.08h-5.17c-0.103,0 -0.176,-0.047 -0.194,-0.078c-0.451,-0.764 -0.689,-1.667 -0.689,-2.612c0,-2.422 1.556,-4.393 3.468,-4.393c1.913,0 3.469,1.971 3.469,4.393c0,0.945 -0.239,1.848 -0.689,2.61zM41.809,48.438c-0.152,-0.53 -0.698,-0.837 -1.237,-0.685c-0.53,0.152 -0.837,0.706 -0.685,1.237c0.268,0.932 0.437,1.9 0.516,2.891c-0.995,-1.209 -2.39,-1.965 -3.935,-1.965c-1.845,0 -3.477,1.078 -4.468,2.72c-0.991,-1.642 -2.622,-2.72 -4.468,-2.72c-1.545,0 -2.94,0.756 -3.935,1.965c0.08,-0.99 0.249,-1.959 0.516,-2.891c0.152,-0.531 -0.154,-1.085 -0.685,-1.237c-0.539,-0.153 -1.085,0.154 -1.237,0.685c-0.239,0.831 -0.406,1.689 -0.513,2.562h-3.497c0.509,-2.54 1.54,-4.851 2.961,-6.537c2.939,1.605 6.655,2.537 10.858,2.537c4.203,0 7.919,-0.932 10.857,-2.537c1.421,1.686 2.452,3.998 2.961,6.537h-3.497c-0.107,-0.873 -0.274,-1.73 -0.512,-2.562zM43.544,56c-0.375,0 -0.736,-0.091 -1.072,-0.271c-0.066,-0.035 -0.137,-0.042 -0.206,-0.062c0.123,-0.833 0.192,-1.681 0.192,-2.539c0,-0.043 -0.004,-0.085 -0.004,-0.128h3.655c0.001,0.018 0.005,0.035 0.006,0.053c-0.016,1.627 -1.162,2.947 -2.571,2.947z"></path><path d="M36.817,21.812c0.023,0 0.047,-0.001 0.07,-0.002c0.551,-0.039 0.967,-0.517 0.929,-1.067c-0.008,-0.104 -0.011,-0.208 -0.011,-0.313c0,-0.553 -0.447,-1 -1,-1c-0.553,0 -1,0.447 -1,1c0,0.151 0.005,0.303 0.015,0.451c0.037,0.527 0.477,0.931 0.997,0.931z"></path></g></g></g></svg>