<svg xmlns="http://www.w3.org/2000/svg"  viewBox="0 0 48 48" width="48px" height="48px" fill-rule="evenodd" clip-rule="evenodd" baseProfile="basic"><path fill-rule="evenodd" d="M13.001,37.995v2.001h22.001v-2.001	H13.001z" clip-rule="evenodd"/><path fill-rule="evenodd" d="M5.001,15.995v2.001h2.001v-2.001	H5.001z" clip-rule="evenodd"/><path fill-rule="evenodd" d="M41.001,12.995v2.001h2.001v-2.001	H41.001z" clip-rule="evenodd"/><path fill-rule="evenodd" d="M21.986,46.995h-1.984	c-1.657,0-3-1.343-3-3l-0.001-0.053c-1.105-0.127-2.02-0.476-2.707-1.056c-0.908-0.761-1.292-1.812-1.292-2.891	c0-2.265,1.097-4.507,2.597-6.291c-5.421-3.668-10.597-9.853-10.597-15.709c0-4.861,4.032-10,9-10c3.171,0,6.229,1.499,8.663,3.413	l0.152,0.127l0.239-0.335c2.185-3.012,5.471-7.032,9.907-7.204c5.111-0.197,10.04,4.273,10.04,10.999	c0,4.984-3.203,10.468-7.013,14.633c-1.233,1.348-2.572,2.601-3.936,3.68c1.675,1.844,2.949,4.253,2.949,6.687	c0,1.079-0.385,2.129-1.293,2.891c-0.689,0.58-1.601,0.928-2.707,1.056v0.053c0,1.657-1.344,3-3,3h-1.987	c-0.005,0.001-0.009,0.001-0.013,0.001h-4.001C21.995,46.997,21.991,46.997,21.986,46.995z" clip-rule="evenodd"/><path fill="#fff" fill-rule="evenodd" d="M20.002,29.995v11h-2	c-2.839,0-4-1.335-4-3c0-3.117,2.451-6.356,5-8H20.002z" clip-rule="evenodd"/><path fill-rule="evenodd" d="M14.294,40.886	c-0.908-0.761-1.292-1.812-1.292-2.891c0-3.572,2.729-7.08,5.457-8.84c0.161-0.104,0.349-0.16,0.543-0.16h1c0.551,0,1,0.449,1,1v11	c0,0.552-0.449,1-1,1h-2C16.439,41.995,15.179,41.63,14.294,40.886z M19.002,39.995v-8.779l-0.336,0.259	c-2.005,1.629-3.664,4.187-3.664,6.52c0,0.588,0.195,1.037,0.577,1.36c0.405,0.34,1.145,0.64,2.423,0.64H19.002z" clip-rule="evenodd"/><path fill="#fff" fill-rule="evenodd" d="M28.002,29.995v11h2	c2.839,0,4-1.335,4-3c0-3.117-2.451-6.356-5-8H28.002z" clip-rule="evenodd"/><path fill-rule="evenodd" d="M27.002,40.995v-11	c0-0.551,0.448-1,1-1h1c0.192,0,0.38,0.056,0.541,0.16c2.723,1.756,5.459,5.273,5.459,8.84c0,1.079-0.385,2.129-1.293,2.891	c-0.885,0.744-2.145,1.109-3.707,1.109h-2C27.45,41.995,27.002,41.547,27.002,40.995z M32.423,39.355	c0.383-0.323,0.579-0.772,0.579-1.36c0-2.328-1.664-4.892-3.668-6.521l-0.332-0.256v8.777h1	C31.278,39.995,32.018,39.695,32.423,39.355z" clip-rule="evenodd"/><path fill="#fff" fill-rule="evenodd" d="M18.002,40.279	c0-0.399,0-3.213,0-3.784c0-3.588,2.688-6.5,6-6.5c3.312,0,6,2.912,6,6.5c0,0.571,0,3.385,0,3.784c0,2.052-1.792,2.716-4,2.716	c-0.323,0-3.68,0-4,0C19.794,42.995,18.002,42.331,18.002,40.279z" clip-rule="evenodd"/><path fill-rule="evenodd" d="M18.669,43.271	c-1.028-0.6-1.667-1.607-1.667-2.992v-3.784c0-4.063,3.061-7.5,7-7.5c3.937,0,7,3.437,7,7.5v3.784c0,1.387-0.64,2.392-1.668,2.992	c-0.949,0.553-2.16,0.724-3.332,0.724h-4C20.829,43.995,19.618,43.825,18.669,43.271z M28.325,41.543	c0.419-0.244,0.677-0.596,0.677-1.264v-3.784c0-3.112-2.315-5.5-5-5.5c-2.687,0-5,2.388-5,5.5v3.784c0,0.667,0.256,1.02,0.676,1.264	c0.499,0.292,1.288,0.452,2.324,0.452h4C27.037,41.995,27.826,41.835,28.325,41.543z" clip-rule="evenodd"/><path fill-rule="evenodd" d="M22.001,40.995v3.001h4.001v-3.001	H22.001z" clip-rule="evenodd"/><path fill-rule="evenodd" d="M21.001,43.997v-3.001	c0-0.551,0.448-1,1-1h4.001c0.551,0,1,0.449,1,1v3.001c0,0.552-0.449,1-1,1h-4.001C21.449,44.997,21.001,44.549,21.001,43.997z M25.002,42.997v-1.001h-2.001v1.001H25.002z" clip-rule="evenodd"/><path fill="#fff" fill-rule="evenodd" d="M18.002,41.995	c0-0.215,0-1.193,0-1.5c0-1.932,1.344-3.5,3-3.5s3,1.568,3,3.5c0,0.307,0,1.285,0,1.5c0,1.104-0.896,2-2,2c-0.161,0-1.84,0-2,0	C18.898,43.995,18.002,43.099,18.002,41.995z" clip-rule="evenodd"/><path fill-rule="evenodd" d="M17.002,41.995v-1.5	c0-2.389,1.687-4.5,4-4.5c2.297,0,4,2.096,4,4.5v1.5c0,1.657-1.344,3-3,3h-2C18.345,44.995,17.002,43.653,17.002,41.995z M23.002,41.995v-1.5c0-1.473-1-2.5-2-2.5c-1.015,0-2,1.041-2,2.5v1.5c0,0.552,0.448,1,1,1h2	C22.553,42.995,23.002,42.547,23.002,41.995z" clip-rule="evenodd"/><path fill="#fff" fill-rule="evenodd" d="M24.002,41.995	c0-0.215,0-1.193,0-1.5c0-1.932,1.344-3.5,3-3.5s3,1.568,3,3.5c0,0.307,0,1.285,0,1.5c0,1.104-0.896,2-2,2c-0.161,0-1.84,0-2,0	C24.898,43.995,24.002,43.099,24.002,41.995z" clip-rule="evenodd"/><path fill-rule="evenodd" d="M23.002,41.995v-1.5	c0-2.389,1.687-4.5,4-4.5c2.297,0,4,2.096,4,4.5v1.5c0,1.657-1.344,3-3,3h-2C24.345,44.995,23.002,43.653,23.002,41.995z M29.002,41.995v-1.5c0-1.473-1-2.5-2-2.5c-1.015,0-2,1.041-2,2.5v1.5c0,0.552,0.448,1,1,1h2	C28.553,42.995,29.002,42.547,29.002,41.995z" clip-rule="evenodd"/><path fill="#fff" fill-rule="evenodd" d="M24.002,33.995	c-6,0-18-9.516-18-18c0-4.451,3.716-9,8-9c3.281,0,6.529,1.785,9,4c2.249-3.155,5.524-7.827,10-8c4.477-0.173,9,3.773,9,10	C42.002,22.214,30.002,33.995,24.002,33.995z" clip-rule="evenodd"/><path fill="#fff" fill-rule="evenodd" d="M24.002,23.005	c3.309,0,5.996,1.788,5.996,3.991s-2.687,3.991-5.996,3.991s-5.996-1.788-5.996-3.991S20.693,23.005,24.002,23.005z" clip-rule="evenodd"/><path fill-rule="evenodd" d="M5.002,15.995c0-4.861,4.032-10,9-10	c3.171,0,6.229,1.499,8.663,3.413l0.152,0.127l0.239-0.335c2.185-3.012,5.471-7.032,9.907-7.204	c5.111-0.197,10.04,4.273,10.04,10.999c0,4.984-3.203,10.468-7.013,14.633c-3.768,4.117-8.525,7.367-11.987,7.367	C17.509,34.995,5.002,25.095,5.002,15.995z M34.514,26.278c3.689-4.031,6.488-9.047,6.488-13.283c0-5.727-4.117-9.149-7.961-9	c-3.883,0.151-6.865,4.272-9.225,7.581c-0.345,0.485-1.037,0.561-1.481,0.164c-2.376-2.129-5.395-3.745-8.332-3.745	c-3.601,0-7,3.961-7,8c0,7.852,11.495,17,17,17C26.537,32.995,30.781,30.357,34.514,26.278z" clip-rule="evenodd"/><path fill-rule="evenodd" d="M24.002,23.995c2.208,0,4,1.12,4,2.5	c0,1.38-1.792,2.5-4,2.5s-4-1.12-4-2.5C20.002,25.115,21.794,23.995,24.002,23.995z" clip-rule="evenodd"/><path fill="#fff" fill-rule="evenodd" d="M22.014,26.495	c0-0.275,0.224-0.5,0.5-0.5h2.976c0.275,0,0.5,0.225,0.5,0.5c0,0.276-0.225,0.5-0.5,0.5h-2.976	C22.238,26.995,22.014,26.771,22.014,26.495z" clip-rule="evenodd"/><path fill-rule="evenodd" d="M21.002,21.994	c0.552,0,1,0.449,1,1.001c0,0.552-0.448,1.001-1,1.001s-1-0.449-1-1.001C20.002,22.443,20.45,21.994,21.002,21.994z" clip-rule="evenodd"/><path fill-rule="evenodd" d="M18.002,19.995c0-0.551,0.448-1,1-1h2	c0.551,0,1,0.449,1,1c0,0.552-0.449,1-1,1h-2C18.45,20.995,18.002,20.547,18.002,19.995z" clip-rule="evenodd"/><path fill-rule="evenodd" d="M26.999,21.994	c-0.552,0-1,0.449-1,1.001c0,0.552,0.448,1.001,1,1.001s1-0.449,1-1.001C27.999,22.443,27.551,21.994,26.999,21.994z" clip-rule="evenodd"/><path fill-rule="evenodd" d="M25.999,19.995c0-0.551,0.448-1,1-1h2	c0.551,0,1,0.449,1,1c0,0.552-0.449,1-1,1h-2C26.447,20.995,25.999,20.547,25.999,19.995z" clip-rule="evenodd"/></svg>