<svg xmlns="http://www.w3.org/2000/svg"  viewBox="0 0 48 48" width="48px" height="48px" fill-rule="evenodd" clip-rule="evenodd" baseProfile="basic"><path fill-rule="evenodd" d="M1.998,27.999v2.001h2.001v-2.001	H1.998z" clip-rule="evenodd"/><path fill-rule="evenodd" d="M10.999,37.998v2.001h2.001v-2.001	H10.999z" clip-rule="evenodd"/><path fill-rule="evenodd" d="M34.998,37.999v2.001h2.001v-2.001	H34.998z" clip-rule="evenodd"/><path fill-rule="evenodd" d="M43.998,28.998v2.001h2.001v-2.001	H43.998z" clip-rule="evenodd"/><path fill-rule="evenodd" d="M10.999,40.001	c0-0.212,0.021-0.423,0.064-0.623l0.689-3.452c-1.261-0.787-2.361-1.721-3.253-2.803l-0.045,0.036	c-1.743,1.355-4.257,1.04-5.613-0.703c-1.356-1.743-1.041-4.257,0.701-5.613l2.504-1.948c0.672-7.944,8.471-15.896,17.955-15.896	c9.896,0,17.959,8.663,18,16.937l2.453,1.907c1.743,1.356,2.057,3.871,0.701,5.613c-1.356,1.743-3.871,2.057-5.613,0.703	l-0.551-0.428c-0.788,0.839-1.711,1.577-2.741,2.217l0.687,3.429c0.043,0.2,0.065,0.411,0.065,0.623c0,1.656-1.344,3.001-3,3.001	c-0.536,0-2.228-0.003-2.764-0.003c-1.116,0-2.087-0.609-2.603-1.509l-1.519-2.649c-1.017,0.107-2.06,0.159-3.116,0.159	c-1.057,0-2.1-0.053-3.119-0.161l-1.517,2.652c-0.516,0.9-1.487,1.509-2.601,1.509c-0.536,0-2.228,0.003-2.764,0.003	C12.342,43.002,10.999,41.657,10.999,40.001z" clip-rule="evenodd"/><path fill="#fff" fill-rule="evenodd" d="M3.63,29.842	c-1.016-1.307-0.78-3.193,0.527-4.211l9-7c1.307-1.016,3.193-0.78,4.211,0.527c1.016,1.307,0.78,3.193-0.527,4.211l-9,7	C6.534,31.385,4.647,31.149,3.63,29.842z" clip-rule="evenodd"/><path fill-rule="evenodd" d="M2.841,30.457	c-1.356-1.743-1.041-4.257,0.701-5.613l9-7.001c1.743-1.355,4.257-1.04,5.613,0.703c1.356,1.743,1.041,4.257-0.701,5.613l-9,7.001	C6.711,32.514,4.197,32.199,2.841,30.457z M7.226,29.579l9-6.999c0.871-0.679,1.028-1.937,0.352-2.808	c-0.679-0.871-1.937-1.028-2.808-0.351l-9,6.999c-0.871,0.679-1.028,1.937-0.352,2.808C5.097,30.099,6.355,30.257,7.226,29.579z" clip-rule="evenodd"/><path fill="#fff" fill-rule="evenodd" d="M44.367,30.842	c1.016-1.307,0.78-3.193-0.527-4.211l-9-7c-1.307-1.016-3.193-0.78-4.211,0.527c-1.016,1.307-0.78,3.193,0.527,4.211l9,7	C41.463,32.385,43.35,32.149,44.367,30.842z" clip-rule="evenodd"/><path fill-rule="evenodd" d="M39.542,32.159l-9-7.001	c-1.743-1.356-2.057-3.871-0.701-5.613c1.356-1.743,3.871-2.057,5.613-0.703l9,7.001c1.743,1.356,2.057,3.871,0.701,5.613	C43.799,33.199,41.285,33.514,39.542,32.159z M43.578,30.229c0.676-0.871,0.519-2.129-0.352-2.808l-9-6.999	c-0.871-0.677-2.129-0.52-2.808,0.351c-0.676,0.871-0.519,2.129,0.352,2.808l9,6.999C41.641,31.257,42.899,31.099,43.578,30.229z" clip-rule="evenodd"/><path fill="#fff" fill-rule="evenodd" d="M11.999,38.001	c0-0.144,0.015-0.284,0.044-0.42l1-5l8.377,1.301l-2.923,5.111c-0.345,0.601-0.993,1.007-1.735,1.007	c-0.536,0-2.228,0.003-2.764,0.003C12.895,40.002,11.999,39.105,11.999,38.001z" clip-rule="evenodd"/><path fill-rule="evenodd" d="M10.999,38.001	c0-0.212,0.021-0.423,0.064-0.623l0.999-4.993c0.105-0.524,0.605-0.873,1.135-0.792l8.377,1.301	c0.691,0.108,1.061,0.877,0.715,1.485l-2.924,5.111c-0.516,0.9-1.487,1.509-2.601,1.509c-0.536,0-2.228,0.003-2.764,0.003	C12.342,41.002,10.999,39.657,10.999,38.001z M16.763,38.999c0.367,0,0.692-0.2,0.867-0.503l2.2-3.849l-5.995-0.931l-0.813,4.068	c-0.016,0.072-0.023,0.141-0.023,0.216c0,0.553,0.448,1.001,1,1.001C14.535,39.002,16.227,38.999,16.763,38.999z" clip-rule="evenodd"/><path fill="#fff" fill-rule="evenodd" d="M36.002,38.001	c0-0.144-0.015-0.284-0.044-0.42l-1-5l-8.377,1.301l2.923,5.111c0.345,0.601,0.993,1.007,1.735,1.007	c0.536,0,2.228,0.003,2.764,0.003C35.106,40.002,36.002,39.105,36.002,38.001z" clip-rule="evenodd"/><path fill-rule="evenodd" d="M31.238,40.999	c-1.116,0-2.087-0.609-2.603-1.509l-2.924-5.111c-0.347-0.608,0.024-1.377,0.715-1.485l8.377-1.301	c0.529-0.081,1.029,0.268,1.135,0.792l0.999,4.993c0.043,0.2,0.065,0.411,0.065,0.623c0,1.656-1.344,3.001-3,3.001	C33.466,41.002,31.774,40.999,31.238,40.999z M35.002,38.001c0-0.075-0.008-0.144-0.024-0.216l-0.813-4.068l-5.995,0.931l2.2,3.849	c0.175,0.303,0.5,0.503,0.868,0.503c0.536,0,2.228,0.003,2.764,0.003C34.553,39.002,35.002,38.554,35.002,38.001z" clip-rule="evenodd"/><path fill="#fff" fill-rule="evenodd" d="M24.001,7.999	c-9.384,0-17.001,8.272-17.001,16c0,7.728,7.617,12,17.001,12c9.384,0,17.001-4.272,17.001-12	C41.002,16.271,33.385,7.999,24.001,7.999z" clip-rule="evenodd"/><path fill-rule="evenodd" d="M5.999,23.999	c0-8.293,8.077-17,18.001-17c9.923,0,18.001,8.707,18.001,17c0,8.577-8.368,13-18.001,13C14.425,36.999,5.999,32.545,5.999,23.999z M40.002,23.999c0-7.161-7.157-15-16.001-15c-8.845,0-16.001,7.839-16.001,15c0,6.88,6.867,11,16.001,11	C33.193,34.999,40.002,30.913,40.002,23.999z" clip-rule="evenodd"/><path fill-rule="evenodd" d="M21.374,17.781l-5-4	c-0.431-0.344-0.501-0.975-0.156-1.405c0.344-0.431,0.975-0.501,1.405-0.156l5,4c0.431,0.344,0.501,0.975,0.156,1.405	C22.435,18.055,21.805,18.126,21.374,17.781z" clip-rule="evenodd"/><path fill-rule="evenodd" d="M25.999,15.999c0-0.551,0.448-1,1-1h3	c0.551,0,1,0.449,1,1c0,0.552-0.449,1-1,1h-3C26.447,16.999,25.999,16.551,25.999,15.999z" clip-rule="evenodd"/><path fill-rule="evenodd" d="M18.999,17.998	c1.104,0,2.001,0.897,2.001,2.001s-0.897,2.001-2.001,2.001c-1.104,0-2.001-0.897-2.001-2.001S17.895,17.998,18.999,17.998z" clip-rule="evenodd"/><path fill-rule="evenodd" d="M29.002,17.998	c-1.104,0-2.001,0.897-2.001,2.001s0.897,2.001,2.001,2.001c1.104,0,2.001-0.897,2.001-2.001S30.106,17.998,29.002,17.998z" clip-rule="evenodd"/><path fill-rule="evenodd" d="M13.999,23.999c0,6.077,8.229,6,14,6	c3.859,0,7-1.868,7-5L13.999,23.999z" clip-rule="evenodd"/><path fill="#fff" fill-rule="evenodd" d="M21.001,25.549	c0,2.175,2.352,2.147,3.999,2.147c1.103,0,2-0.669,2-1.788L21.001,25.549z" clip-rule="evenodd"/></svg>